<svg width="27" height="29" viewBox="0 0 27 29" fill="none" xmlns="http://www.w3.org/2000/svg">
<path d="M14.1542 25.3383C15.4281 25.3383 16.6609 25.1317 17.8527 24.7184C19.0435 24.306 20.1344 23.7106 21.1251 22.9321C19.7569 22.4367 18.3122 21.6403 16.7911 20.5429C15.2691 19.4464 13.9301 18.0725 12.7742 16.4212C11.6182 14.7698 10.7751 12.8529 10.2448 10.6703C9.71356 8.48868 9.73102 6.06501 10.2972 3.3993C8.10328 4.17778 6.31042 5.52809 4.91859 7.45023C3.52676 9.37332 2.83084 11.5616 2.83084 14.015C2.83084 17.1525 3.93392 19.8243 6.14009 22.0305C8.34532 24.2357 11.0167 25.3383 14.1542 25.3383ZM14.1542 28.1692C12.1962 28.1692 10.3562 27.7974 8.63406 27.0538C6.91197 26.3112 5.41398 25.3029 4.1401 24.0291C2.86623 22.7552 1.85798 21.2572 1.11535 19.5351C0.371784 17.813 0 15.973 0 14.015C0 10.5472 1.09082 7.49222 3.27245 4.85011C5.45503 2.20799 8.37457 0.603844 12.0311 0.0376762C12.7152 -0.0802755 13.2049 0.0787233 13.5003 0.514673C13.7947 0.951566 13.8121 1.52387 13.5527 2.23158C12.8449 4.21317 12.5972 6.21221 12.8096 8.22871C13.0219 10.2462 13.5998 12.1041 14.5434 13.8026C15.4871 15.5011 16.7553 16.9694 18.3481 18.2074C19.94 19.4464 21.7621 20.29 23.8144 20.7382C24.5693 20.9033 25.0468 21.2218 25.2469 21.6936C25.4478 22.1654 25.3242 22.6608 24.876 23.1798C23.5785 24.7132 22.0041 25.9281 20.1528 26.8245C18.3004 27.7209 16.3009 28.1692 14.1542 28.1692Z" fill="black"/>
<path d="M20.5236 6.86608L18.8625 8.13431C18.7802 8.20165 18.6905 8.23338 18.5932 8.22948C18.4959 8.22589 18.4099 8.19791 18.3351 8.14553C18.2602 8.09316 18.2023 8.02208 18.1613 7.93229C18.12 7.8425 18.1181 7.74524 18.1555 7.64048L18.7952 5.56417L17.1678 4.40817C17.078 4.34831 17.0219 4.26975 16.9995 4.17248C16.977 4.07521 16.9808 3.98542 17.0107 3.90312C17.0406 3.82082 17.093 3.74779 17.1678 3.68404C17.2426 3.62059 17.3324 3.58887 17.4372 3.58887H19.4462L20.0971 1.43399C20.1345 1.32924 20.1926 1.24873 20.2713 1.19247C20.3497 1.1365 20.4338 1.10852 20.5236 1.10852C20.6134 1.10852 20.6975 1.1365 20.7759 1.19247C20.8546 1.24873 20.9127 1.32924 20.9501 1.43399L21.601 3.58887H23.61C23.7148 3.58887 23.8045 3.62059 23.8794 3.68404C23.9542 3.74779 24.0066 3.82082 24.0365 3.90312C24.0664 3.98542 24.0702 4.07521 24.0477 4.17248C24.0253 4.26975 23.9692 4.34831 23.8794 4.40817L22.252 5.56417L22.8917 7.64048C22.9291 7.74524 22.9273 7.8425 22.8863 7.93229C22.845 8.02208 22.787 8.09316 22.7121 8.14553C22.6373 8.19791 22.5513 8.22589 22.454 8.22948C22.3567 8.23338 22.267 8.20165 22.1846 8.13431L20.5236 6.86608Z" fill="black"/>
<path d="M24.048 12.1237L23.0514 12.8847C23.002 12.9251 22.9482 12.9441 22.8898 12.9418C22.8314 12.9396 22.7798 12.9228 22.7349 12.8914C22.69 12.86 22.6553 12.8173 22.6307 12.7635C22.6059 12.7096 22.6047 12.6512 22.6272 12.5884L23.011 11.3426L22.0346 10.649C21.9807 10.6131 21.947 10.5659 21.9336 10.5076C21.9201 10.4492 21.9223 10.3953 21.9403 10.346C21.9583 10.2966 21.9897 10.2528 22.0346 10.2145C22.0795 10.1764 22.1333 10.1574 22.1962 10.1574H23.4016L23.7921 8.86448C23.8146 8.80162 23.8494 8.75332 23.8967 8.71956C23.9437 8.68598 23.9942 8.66919 24.048 8.66919C24.1019 8.66919 24.1524 8.68598 24.1994 8.71956C24.2466 8.75332 24.2815 8.80162 24.3039 8.86448L24.6945 10.1574H25.8999C25.9627 10.1574 26.0166 10.1764 26.0615 10.2145C26.1064 10.2528 26.1378 10.2966 26.1558 10.346C26.1737 10.3953 26.176 10.4492 26.1625 10.5076C26.149 10.5659 26.1154 10.6131 26.0615 10.649L25.0851 11.3426L25.4689 12.5884C25.4914 12.6512 25.4903 12.7096 25.4657 12.7635C25.4409 12.8173 25.4061 12.86 25.3612 12.8914C25.3163 12.9228 25.2646 12.9396 25.2063 12.9418C25.1479 12.9441 25.0941 12.9251 25.0447 12.8847L24.048 12.1237Z" fill="black"/>
</svg>
