<svg width="20" height="21" viewBox="0 0 20 21" fill="none" xmlns="http://www.w3.org/2000/svg">
<path d="M8.41879 0C7.91712 0 7.48828 0.355523 7.39192 0.849023L7.04213 2.64961C6.18253 2.97549 5.3877 3.43077 4.68975 4.00518L2.9674 3.41045C2.49296 3.24665 1.97097 3.44333 1.71961 3.87803L0.140445 6.62197C-0.109865 7.05772 -0.0187645 7.61092 0.359319 7.94062L1.74007 9.14443C1.66826 9.58685 1.62142 10.0372 1.62142 10.5C1.62142 10.9628 1.66826 11.4131 1.74007 11.8556L0.359319 13.0594C-0.0187645 13.3891 -0.109865 13.9423 0.140445 14.378L1.71961 17.122C1.96992 17.5577 2.49296 17.7544 2.9674 17.5916L4.68975 16.9969C5.38747 17.5709 6.18292 18.0247 7.04213 18.3504L7.39192 20.151C7.48828 20.6445 7.91712 21 8.41879 21H11.5812C12.0829 21 12.5117 20.6445 12.6081 20.151L12.9579 18.3504C13.8175 18.0245 14.6123 17.5692 15.3102 16.9948L17.0326 17.5895C17.507 17.7533 18.029 17.5577 18.2804 17.122L19.8596 14.376C20.1099 13.9402 20.0188 13.3891 19.6407 13.0594L18.2599 11.8556C18.3317 11.4131 18.3786 10.9628 18.3786 10.5C18.3786 10.0372 18.3317 9.58685 18.2599 9.14443L19.6407 7.94062C20.0188 7.61092 20.1099 7.05772 19.8596 6.62197L18.2804 3.87803C18.0301 3.44228 17.507 3.24565 17.0326 3.4084L15.3102 4.00312C14.6125 3.42908 13.8171 2.97534 12.9579 2.64961L12.6081 0.849023C12.5117 0.355523 12.0829 0 11.5812 0H8.41879ZM10 6.3C12.3135 6.3 14.1893 8.18055 14.1893 10.5C14.1893 12.8194 12.3135 14.7 10 14.7C7.68647 14.7 5.81071 12.8194 5.81071 10.5C5.81071 8.18055 7.68647 6.3 10 6.3Z" fill="black"/>
</svg>
