<svg width="35" height="35" viewBox="0 0 35 35" fill="none" xmlns="http://www.w3.org/2000/svg">
<path d="M17.5 6.36364C17.0492 6.36364 16.6717 6.21091 16.3673 5.90545C16.0618 5.60106 15.9091 5.22348 15.9091 4.77273V1.59091C15.9091 1.14015 16.0618 0.762045 16.3673 0.456591C16.6717 0.152197 17.0492 0 17.5 0C17.9508 0 18.3289 0.152197 18.6343 0.456591C18.9387 0.762045 19.0909 1.14015 19.0909 1.59091V4.77273C19.0909 5.22348 18.9387 5.60106 18.6343 5.90545C18.3289 6.21091 17.9508 6.36364 17.5 6.36364ZM25.375 9.625C25.0833 9.33333 24.9375 8.96848 24.9375 8.53045C24.9375 8.09348 25.0833 7.71591 25.375 7.39773L27.6023 5.13068C27.9205 4.8125 28.298 4.65341 28.735 4.65341C29.173 4.65341 29.5511 4.8125 29.8693 5.13068C30.161 5.42235 30.3068 5.79356 30.3068 6.24432C30.3068 6.69508 30.161 7.06629 29.8693 7.35795L27.6023 9.625C27.3106 9.91667 26.9394 10.0625 26.4886 10.0625C26.0379 10.0625 25.6667 9.91667 25.375 9.625ZM30.2273 19.0909C29.7765 19.0909 29.3989 18.9382 29.0945 18.6327C28.7891 18.3283 28.6364 17.9508 28.6364 17.5C28.6364 17.0492 28.7891 16.6711 29.0945 16.3657C29.3989 16.0613 29.7765 15.9091 30.2273 15.9091H33.4091C33.8598 15.9091 34.2374 16.0613 34.5418 16.3657C34.8473 16.6711 35 17.0492 35 17.5C35 17.9508 34.8473 18.3283 34.5418 18.6327C34.2374 18.9382 33.8598 19.0909 33.4091 19.0909H30.2273ZM17.5 35C17.0492 35 16.6717 34.8473 16.3673 34.5418C16.0618 34.2374 15.9091 33.8598 15.9091 33.4091V30.2273C15.9091 29.7765 16.0618 29.3989 16.3673 29.0945C16.6717 28.7891 17.0492 28.6364 17.5 28.6364C17.9508 28.6364 18.3289 28.7891 18.6343 29.0945C18.9387 29.3989 19.0909 29.7765 19.0909 30.2273V33.4091C19.0909 33.8598 18.9387 34.2374 18.6343 34.5418C18.3289 34.8473 17.9508 35 17.5 35ZM7.39773 9.625L5.13068 7.39773C4.8125 7.07955 4.65341 6.69508 4.65341 6.24432C4.65341 5.79356 4.8125 5.42235 5.13068 5.13068C5.42235 4.83902 5.79356 4.69318 6.24432 4.69318C6.69508 4.69318 7.06629 4.83902 7.35795 5.13068L9.625 7.39773C9.91667 7.68939 10.0625 8.06061 10.0625 8.51136C10.0625 8.96212 9.91667 9.33333 9.625 9.625C9.30682 9.91667 8.93561 10.0625 8.51136 10.0625C8.08712 10.0625 7.71591 9.91667 7.39773 9.625ZM27.6023 29.8693L25.375 27.6023C25.0833 27.2841 24.9375 26.9065 24.9375 26.4695C24.9375 26.0315 25.0833 25.6667 25.375 25.375C25.6667 25.0833 26.0315 24.9375 26.4695 24.9375C26.9065 24.9375 27.2841 25.0833 27.6023 25.375L29.8693 27.6023C30.1875 27.8939 30.3397 28.2652 30.3259 28.7159C30.3132 29.1667 30.161 29.5511 29.8693 29.8693C29.5511 30.1875 29.1667 30.3466 28.7159 30.3466C28.2652 30.3466 27.8939 30.1875 27.6023 29.8693ZM1.59091 19.0909C1.14015 19.0909 0.762576 18.9382 0.458182 18.6327C0.152727 18.3283 0 17.9508 0 17.5C0 17.0492 0.152727 16.6711 0.458182 16.3657C0.762576 16.0613 1.14015 15.9091 1.59091 15.9091H4.77273C5.22348 15.9091 5.60159 16.0613 5.90705 16.3657C6.21144 16.6711 6.36364 17.0492 6.36364 17.5C6.36364 17.9508 6.21144 18.3283 5.90705 18.6327C5.60159 18.9382 5.22348 19.0909 4.77273 19.0909H1.59091ZM5.13068 29.8693C4.83902 29.5777 4.69318 29.2064 4.69318 28.7557C4.69318 28.3049 4.83902 27.9337 5.13068 27.642L7.39773 25.375C7.68939 25.0833 8.05424 24.9375 8.49227 24.9375C8.92924 24.9375 9.30682 25.0833 9.625 25.375C9.94318 25.6932 10.1023 26.0713 10.1023 26.5093C10.1023 26.9463 9.94318 27.3239 9.625 27.642L7.39773 29.8693C7.07955 30.1875 6.69508 30.3466 6.24432 30.3466C5.79356 30.3466 5.42235 30.1875 5.13068 29.8693ZM17.5 27.0455C14.8485 27.0455 12.5947 26.1174 10.7386 24.2614C8.88258 22.4053 7.95455 20.1515 7.95455 17.5C7.95455 14.8485 8.88258 12.5947 10.7386 10.7386C12.5947 8.88258 14.8485 7.95455 17.5 7.95455C20.1515 7.95455 22.4053 8.88258 24.2614 10.7386C26.1174 12.5947 27.0455 14.8485 27.0455 17.5C27.0455 20.1515 26.1174 22.4053 24.2614 24.2614C22.4053 26.1174 20.1515 27.0455 17.5 27.0455ZM17.5 23.8636C19.25 23.8636 20.7481 23.2405 21.9943 21.9943C23.2405 20.7481 23.8636 19.25 23.8636 17.5C23.8636 15.75 23.2405 14.2519 21.9943 13.0057C20.7481 11.7595 19.25 11.1364 17.5 11.1364C15.75 11.1364 14.2519 11.7595 13.0057 13.0057C11.7595 14.2519 11.1364 15.75 11.1364 17.5C11.1364 19.25 11.7595 20.7481 13.0057 21.9943C14.2519 23.2405 15.75 23.8636 17.5 23.8636Z" fill="black"/>
</svg>
