<svg width="16" height="21" viewBox="0 0 16 21" fill="none" xmlns="http://www.w3.org/2000/svg">
<path d="M8 0C7.172 0 6.5 0.7056 6.5 1.575V2.30508C3.91318 3.0052 2 5.46504 2 8.4V14.7L0.464844 15.9141H0.462891C0.320993 16.0089 0.204183 16.1399 0.123271 16.2947C0.0423585 16.4496 -3.99061e-05 16.6234 2.81839e-08 16.8C2.81839e-08 17.0785 0.105357 17.3455 0.292893 17.5425C0.48043 17.7394 0.734784 17.85 1 17.85H8H15C15.2652 17.85 15.5196 17.7394 15.7071 17.5425C15.8946 17.3455 16 17.0785 16 16.8C16 16.6234 15.9576 16.4496 15.8767 16.2947C15.7958 16.1399 15.679 16.0089 15.5371 15.9141L14 14.7V8.4C14 5.46504 12.0868 3.0052 9.5 2.30508V1.575C9.5 0.7056 8.828 0 8 0ZM6 18.9C6 20.055 6.9 21 8 21C9.1 21 10 20.055 10 18.9H6Z" fill="black"/>
</svg>
